<svg width="1200" height="720" viewBox="0 0 1200 720" fill="none" xmlns="http://www.w3.org/2000/svg">
  <defs>
    <linearGradient id="card" x1="190" y1="150" x2="1010" y2="570" gradientUnits="userSpaceOnUse">
      <stop stop-color="#FFF8F4"/>
      <stop offset="1" stop-color="#F8E8E0"/>
    </linearGradient>
    <linearGradient id="accentA" x1="706" y1="220" x2="954" y2="458" gradientUnits="userSpaceOnUse">
      <stop stop-color="#FF9FC1"/>
      <stop offset="1" stop-color="#DDAA96"/>
    </linearGradient>
    <linearGradient id="accentB" x1="748" y1="276" x2="924" y2="470" gradientUnits="userSpaceOnUse">
      <stop stop-color="#FFD8E3"/>
      <stop offset="1" stop-color="#F3D8CC"/>
    </linearGradient>
    <clipPath id="clip">
      <rect x="190" y="150" width="820" height="420" rx="42"/>
    </clipPath>
  </defs>

  <rect x="190" y="150" width="820" height="420" rx="42" fill="url(#card)"/>
  <rect x="190.75" y="150.75" width="818.5" height="418.5" rx="41.25" stroke="#EFC9D0" stroke-width="1.5"/>

  <g clip-path="url(#clip)">
    <rect x="698" y="230" width="232" height="232" rx="62" transform="rotate(-12 698 230)" fill="url(#accentA)"/>
    <rect x="748" y="280" width="176" height="176" rx="46" transform="rotate(-12 748 280)" fill="url(#accentB)"/>
    <circle cx="840" cy="416" r="100" fill="#FFF5F7"/>
    <circle cx="924" cy="248" r="24" fill="#FFB4CA"/>
    <circle cx="952" cy="316" r="13" fill="#E7B5A2"/>
    <circle cx="714" cy="488" r="17" fill="#F39AB9"/>
    <path d="M734 286H946" stroke="#FFF8FA" stroke-width="18" stroke-linecap="round"/>
    <path d="M704 338H922" stroke="#FBE4EB" stroke-width="18" stroke-linecap="round"/>
    <path d="M734 502L934 394" stroke="#E2A18E" stroke-width="14" stroke-linecap="round"/>
    <path d="M770 524L932 436" stroke="#F4C1D0" stroke-width="10" stroke-linecap="round"/>
  </g>

  <path d="M252 258H330" stroke="#F1B4C7" stroke-width="10" stroke-linecap="round"/>
  <path d="M252 286H304" stroke="#E1B49F" stroke-width="10" stroke-linecap="round"/>

  <text x="252" y="348" font-family="ui-sans-serif, system-ui, sans-serif" font-size="88" font-weight="800" fill="#36282E">ace-taffy</text>
  <text x="252" y="408" font-family="ui-sans-serif, system-ui, sans-serif" font-size="34" font-weight="600" fill="#775962">永雏塔菲.skill</text>

  <rect x="252" y="486" width="194" height="16" rx="8" fill="#EDB4C6"/>
  <rect x="462" y="486" width="134" height="16" rx="8" fill="#DFB19D"/>
  <rect x="612" y="486" width="84" height="16" rx="8" fill="#F5DCE4"/>
</svg>
