<svg width="1200" height="720" viewBox="0 0 1200 720" fill="none" xmlns="http://www.w3.org/2000/svg">
  <defs>
    <linearGradient id="card" x1="190" y1="150" x2="1010" y2="570" gradientUnits="userSpaceOnUse">
      <stop stop-color="#2E3137"/>
      <stop offset="1" stop-color="#1B1D22"/>
    </linearGradient>
    <linearGradient id="shapeA" x1="714" y1="232" x2="960" y2="472" gradientUnits="userSpaceOnUse">
      <stop stop-color="#5A606A"/>
      <stop offset="1" stop-color="#2E3239"/>
    </linearGradient>
    <linearGradient id="shapeB" x1="762" y1="282" x2="930" y2="486" gradientUnits="userSpaceOnUse">
      <stop stop-color="#6E7480"/>
      <stop offset="1" stop-color="#434850"/>
    </linearGradient>
    <clipPath id="clip">
      <rect x="190" y="150" width="820" height="420" rx="42"/>
    </clipPath>
  </defs>

  <rect x="190" y="150" width="820" height="420" rx="42" fill="url(#card)"/>
  <rect x="190.75" y="150.75" width="818.5" height="418.5" rx="41.25" stroke="#535862" stroke-width="1.5"/>

  <g clip-path="url(#clip)">
    <path d="M716 246L948 282L866 510L668 452L716 246Z" fill="url(#shapeA)"/>
    <path d="M782 290L932 322L876 486L742 452L782 290Z" fill="url(#shapeB)"/>
    <path d="M698 302H952" stroke="#7A808A" stroke-width="12" stroke-linecap="round" stroke-opacity="0.62"/>
    <path d="M678 366H926" stroke="#60656F" stroke-width="16" stroke-linecap="round" stroke-opacity="0.66"/>
    <path d="M726 516L950 408" stroke="#959AA5" stroke-width="14" stroke-linecap="round" stroke-opacity="0.58"/>
    <circle cx="936" cy="252" r="18" fill="#646973"/>
    <circle cx="706" cy="502" r="16" fill="#51555F"/>
  </g>

  <g transform="translate(856 242)">
    <path d="M0 24C0 8 12 0 24 0C37 0 49 8 49 24C49 47 34 66 24 78C15 66 0 47 0 24Z" fill="#D75462"/>
    <circle cx="16.5" cy="31" r="3.2" fill="#F6E1A5"/>
    <circle cx="28.5" cy="40" r="3.2" fill="#F6E1A5"/>
    <circle cx="36.5" cy="27" r="3.2" fill="#F6E1A5"/>
    <path d="M21 -2C26 5 33 9 42 10" stroke="#67B145" stroke-width="6" stroke-linecap="round"/>
    <path d="M20 -1C16 5 10 9 2 10" stroke="#5AA63B" stroke-width="6" stroke-linecap="round"/>
  </g>
  <g transform="translate(924 334) scale(0.78)">
    <path d="M0 24C0 8 12 0 24 0C37 0 49 8 49 24C49 47 34 66 24 78C15 66 0 47 0 24Z" fill="#E15E68"/>
    <circle cx="16.5" cy="31" r="3.2" fill="#F6E1A5"/>
    <circle cx="28.5" cy="40" r="3.2" fill="#F6E1A5"/>
    <circle cx="36.5" cy="27" r="3.2" fill="#F6E1A5"/>
    <path d="M21 -2C26 5 33 9 42 10" stroke="#67B145" stroke-width="6" stroke-linecap="round"/>
    <path d="M20 -1C16 5 10 9 2 10" stroke="#5AA63B" stroke-width="6" stroke-linecap="round"/>
  </g>
  <g transform="translate(786 446) scale(0.64)">
    <path d="M0 24C0 8 12 0 24 0C37 0 49 8 49 24C49 47 34 66 24 78C15 66 0 47 0 24Z" fill="#C94A57"/>
    <circle cx="16.5" cy="31" r="3.2" fill="#F6E1A5"/>
    <circle cx="28.5" cy="40" r="3.2" fill="#F6E1A5"/>
    <circle cx="36.5" cy="27" r="3.2" fill="#F6E1A5"/>
    <path d="M21 -2C26 5 33 9 42 10" stroke="#67B145" stroke-width="6" stroke-linecap="round"/>
    <path d="M20 -1C16 5 10 9 2 10" stroke="#5AA63B" stroke-width="6" stroke-linecap="round"/>
  </g>

  <path d="M252 258H326" stroke="#707680" stroke-width="10" stroke-linecap="round"/>
  <path d="M252 286H304" stroke="#555B64" stroke-width="10" stroke-linecap="round"/>

  <text x="252" y="348" font-family="ui-sans-serif, system-ui, sans-serif" font-size="88" font-weight="800" fill="#F3F4F6">mocha.skill</text>
  <text x="252" y="408" font-family="ui-sans-serif, system-ui, sans-serif" font-size="34" font-weight="600" fill="#B2B7BF">墨茶Official</text>

  <rect x="252" y="486" width="182" height="16" rx="8" fill="#656A75"/>
  <rect x="448" y="486" width="132" height="16" rx="8" fill="#4C515A"/>
  <rect x="596" y="486" width="118" height="16" rx="8" fill="#818690"/>
</svg>
